HIERARCHY
ROOT Hips
{
  OFFSET 0.0 0.0 0.0
  CHANNELS 6 Xposition Yposition Zposition Zrotation Xrotation Yrotation
  JOINT LeftUpLeg
  {
    OFFSET 8.931 -3.1 1.779
    CHANNELS 3 Zrotation Xrotation Yrotation
    JOINT LeftLeg
    {
      OFFSET 0.007 -40.402 -0.173
      CHANNELS 3 Zrotation Xrotation Yrotation
      JOINT LeftFoot
      {
        OFFSET -1.482 -46.019 -2.403
        CHANNELS 3 Zrotation Xrotation Yrotation
        End Site
        {
          OFFSET -0.04 -4.41509 8.4991
        }
      }
    }
  }
  JOINT Spine
  {
    OFFSET 0 11.8905 0
    CHANNELS 3 Zrotation Xrotation Yrotation
    JOINT Spine1
    {
      OFFSET 0 25.6574 0.127663
      CHANNELS 3 Zrotation Xrotation Yrotation
      End Site
      {
        OFFSET -0.29 21.50836 2.525291
      }
      JOINT RightArm
      {
        OFFSET -16.2727 -5.36563199 0.102123
        CHANNELS 3 Zrotation Xrotation Yrotation
        JOINT RightForeArm
        {
          OFFSET -31.364 0.099144 -1.42434
          CHANNELS 3 Zrotation Xrotation Yrotation
          End Site
          {
            OFFSET -27.0902 0.085362 1.02216
          }
        }
      }
      JOINT LeftArm
      {
        OFFSET 16.2727 -5.365632 0.102123
        CHANNELS 3 Zrotation Xrotation Yrotation
        JOINT LeftForeArm
        {
          OFFSET 31.364 0.099144 -1.42434
          CHANNELS 3 Zrotation Xrotation Yrotation
          End Site
          {
            OFFSET 27.0902 0.085362 1.02216
          }
        }
      }
    }
  }
  JOINT RightUpLeg
  {
    OFFSET -8.931 -3.1 1.779
    CHANNELS 3 Zrotation Xrotation Yrotation
    JOINT RightLeg
    {
      OFFSET -0.007 -40.402 -0.173
      CHANNELS 3 Zrotation Xrotation Yrotation
      JOINT RightFoot
      {
        OFFSET 1.482 -46.019 -2.403
        CHANNELS 3 Zrotation Xrotation Yrotation
        End Site
        {
          OFFSET 0.04 -4.41509 8.4991
        }
      }
    }
  }
}
MOTION
Frames: 7
Frame Time: 0.033333
3.36597 98.0942 -20.4714 -2.9015597686263854 1.6978899386253186 1.253949947410998 4.386740220859465 0.6574840413457709 1.7908401687710238 -0.061704195766159646 13.873699661956987 0.28760699295307207 -3.569790045414113 -10.863000087139556 -13.22670060131742 3.3867200582034385 1.3289800023304112 -1.8045300023018451 3.0961800326103748 -5.995490107678887 -0.34297597482063336 80.79330365427283 20.088899452875435 -3.6964100132385136 -11.697600538617278 -5.2375696286919595 21.01910120839218 -87.96830126415534 25.343099311535905 4.962179816451631 14.184100170109154 -7.102759821673157 -25.91880058875065 4.247759958514868 -2.9490400420851404 0.7653749901357616 0.046571001190443946 19.953299707283172 -0.2468650212756518 0.9522769269142253 -13.868799855001148 0.8158060120376681
3.38365 98.1019 -20.4739 -2.9583999625689965 1.6119899578069474 0.9205640384327387 4.376299849826276 0.8001839820236738 1.8440900310877357 -0.060532498158385115 13.756300662955514 0.28508499896289774 -3.4885699181159646 -10.810700474891123 -12.895099185981532 3.518520084183059 1.3179300369138 -1.5769600519880678 2.974749941338126 -5.996130437913576 -0.28385300359135673 80.9545985715227 20.440799336650954 -3.8209499750172338 -11.784699964686926 -5.297539543378318 21.186700390245953 -87.95190197995814 25.19640050854237 5.014369718786521 14.14930035628794 -7.074379958784931 -25.84879968749448 4.254490256168269 -2.858389984864143 0.8467870030609055 0.04245960083606651 20.049299723614993 -0.24793600027359508 1.0197999636055597 -13.922599547546046 1.1215400068828367
3.38755 98.1033 -20.5199 -2.978899921589144 1.583959928670273 0.7523870119030122 4.390939933425376 0.7689440307813578 1.9086299826590671 -0.060514895747037785 13.752499662682403 0.2850890010268646 -3.4517498624043066 -10.772900500476979 -12.761399940525825 3.5248301117590928 1.3655399772450798 -1.4411499579137093 2.891380011998716 -6.253239675727189 -0.24254300563491465 81.31739772966625 20.515400370313127 -4.299870033013834 -11.91499948348326 -5.3879998494064365 21.438199908316868 -87.83979808511073 25.399600343897546 5.110490117202464 14.040200037128033 -6.985780025531995 -25.628599511295146 4.274399830712033 -2.8513100669026015 0.933180998655339 0.042708399147722814 20.087200443319396 -0.2479670029291246 1.0389200109699526 -13.90329999427253 1.2119599721061696
3.37668 98.1128 -20.5866 -2.823230092007621 1.4967100249954723 0.6292150089489988 4.139480115829009 0.8631200130788158 1.7388100288296882 -0.06073520269830376 13.79430042040288 0.28516600073758586 -3.403659994562128 -10.837800104196793 -12.494200378873987 3.381129975254606 1.454049944100042 -1.3902299371559121 2.859570113486674 -6.203950042468615 -0.23065100595968777 81.3318982212742 20.36899868054849 -4.205589943692386 -11.80879943339967 -5.314149709666142 21.2332003181154 -87.93040054445095 25.178599328018027 5.291889696274248 14.092399757859855 -7.028040113474156 -25.73369904714872 4.035409804105995 -2.691749804258522 0.8998269437823453 0.04257889902786364 20.014100343727332 -0.24777399672421885 1.0672799168991975 -13.882999818285604 1.3727300320069875
3.42799 98.1086 -20.6422 -2.7040400893397254 1.5191700348640014 1.1894200276800102 4.078629960513366 0.7268730003409882 1.5649599432248842 -0.06192070075665715 14.023500224607352 0.28548902066055987 -3.490120157614146 -10.898300212317475 -12.85070039505551 3.1618000078442146 1.6800200293224496 -1.7192499678723583 2.8489698733382256 -6.164699933516314 -0.32528100907396656 81.3095976536341 20.458100205818596 -3.8225798289079282 -11.82219941077759 -5.323549757511373 21.259399216224274 -87.72369852959885 24.925699621167258 5.00831006033225 14.025099342646781 -6.973459644929761 -25.598200046846713 3.9570598503631325 -2.8044701236785348 0.6889049926010923 0.042383001331741874 19.902899741397647 -0.24748099228099588 0.9824269827362483 -13.811000232923561 0.9685980908227939
3.42394 98.092 -20.7149 -2.6316599343748655 1.700099931708641 1.0668699988272912 4.0715500425518245 0.39095301113937475 1.9746301006089004 -0.06288500473956526 14.208399421855122 0.2857770091836111 -3.5731701352796232 -11.054200133896662 -13.095299714517422 3.0152198793875096 2.060880021900529 -1.6798100010054717 2.9490701376061708 -5.741109957325517 -0.3171909701672038 80.85530128136905 20.51090098319738 -2.6747699539818703 -11.805100032190461 -5.311469714190559 21.22610033647317 -87.42890073483193 24.729198493840578 4.161039607944155 14.01059970481249 -6.961789839845972 -25.56930151646839 3.9137696845167684 -3.089179942484758 0.7638949735199845 0.042672897505283955 19.878799418911257 -0.24729398917204035 0.9982119767949709 -13.646999706988739 1.0257399870276493
3.39847 98.0875 -20.7698 -2.729360027479786 1.7337100119538043 0.8414850153568302 4.159770046532179 0.32663498735521584 2.155239939057901 -0.06257079602742485 14.14400012949201 0.28576601684791564 -3.5300001380739694 -10.902800453206867 -13.057100174036833 3.1530699588678806 2.152029963591407 -1.5355099817927875 2.8961500453603235 -5.657330003192494 -0.2774179782174262 80.72440070592575 20.675500004458225 -2.4785100177102546 -11.831500420879854 -5.329799807488757 21.277099651458364 -87.43579922589365 24.525699837709215 4.111169835492953 14.01920062052483 -6.968780111574657 -25.586598970541445 3.9830201187378815 -3.163819822847834 0.7567369886306641 0.04382099961092087 20.028599127787977 -0.2473560211635258 1.0417200683645405 -13.715299891141575 1.277959983334297
